# xmcd
#
# Track frame offsets:
#	150
#	11297
#	25802
#	45513
#	57475
#	72045
#	87333
#	104626
#	123797
#	139698
#	164647
#	183481
#	202929
#	221440
#	248332
#
# Disc length: 3706 seconds
#
# Revision: 0
# Processed by: cddbd v1.5.1PL0 Copyright (c) Steve Scherf et al.
# Submitted via: dBpowerAMP V4.0
#
DISCID=c50e780f
DTITLE=Frédérique Spigt  - Mans Genoeg
DYEAR=2004
DGENRE=Blues
TTITLE0=Little Acrobat (featuring Tim Akkerman]
TTITLE1=Something about you [featuring Sarah Bettens]
TTITLE2=Mans genoeg [featuring Jan Van der Meij]
TTITLE3=Feel the glow [featuring Inge Bonthond]
TTITLE4=Half without you [featuring Daniël Lohues]
TTITLE5=Je eigen persoonlijke Jezus [featuring Barry Hay]
TTITLE6=Thuis [featuring Ton Engels]
TTITLE7=Stand and stare [featuring Ivo Severijns]
TTITLE8=She came to win [featuring Herman Brood]
TTITLE9=Too hard to understand [featuring Tessa Boomkamp] 
TTITLE10=Sterker dan wij twee [featuring Huub van der Lubbe] 
TTITLE11=De dood is zoet [featuring Katja Schuurman] 
TTITLE12=Zoals ut er hier an toe geet [featuring Bennie Jolink] 
TTITLE13=Neem mijn jas [featuring Liesbeth List] 
TTITLE14=DATA
EXTD=Frédérique Spigt - Mans Genoeg [2004]\nRipped by Dennis M :o]\n
EXTT0=
EXTT1=
EXTT2=
EXTT3=
EXTT4=
EXTT5=
EXTT6=
EXTT7=
EXTT8=
EXTT9=
EXTT10=
EXTT11=
EXTT12=
EXTT13=
EXTT14=
PLAYORDER=
